<?xml version="1.0" encoding="UTF-8"?>
<svg id="Layer_1" xmlns="http://www.w3.org/2000/svg" version="1.1" viewBox="0 0 1024 1024">
  <!-- Generator: Adobe Illustrator 29.0.1, SVG Export Plug-In . SVG Version: 2.1.0 Build 192)  -->
  <defs>
    <style>
      .st0 {
        fill: #ffd428;
      }

      .st1 {
        fill: #ef3a2c;
      }
    </style>
  </defs>
  <path class="st1" d="M682.8,671.8l-42.4-151.1-5-18h0c0,0-61.9-220.4-61.9-220.4-1.4-5.2-5.8-8.7-10.7-8.7h-106c-7.7,0-13.1,8.3-10.6,16.3l122.9,389.4c1.6,5,5.8,8.3,10.6,8.3h92.5c7.5,0,12.9-8,10.7-15.9h0Z"/>
  <path class="st0" d="M918.2,273.7h-121.7c-3.3,0-6.2,1.9-7.3,4.8l-89.8,239.8c-1.1,2.9-4,4.8-7.3,4.8h-31.1l44.9,158.5c1,3.7,4.3,6.2,8.1,6.2h53c3.5,0,6.7-2.2,7.9-5.6,4.3-11.9,14.1-39,14.4-39.6l136.4-359.3c1.7-4.7-2-9.6-7.3-9.6h0Z"/>
  <path class="st1" d="M382.5,445.9s-112.9-35.5-126.8-38.7c-9.3-2.2-12.9-5.3-12.9-10.2s4.6-9.5,12.6-9.5h189.9c5.8-.4,9.8-6.1,8-11.6l-8-25-2.6-8.2-18.6-58.5c-2-6.3-7.8-10.5-14.4-10.5h-173c-75.7,0-138.7,38-138.7,116.1s48.2,108.7,94.1,120l138.1,39.2c9.8,2.5,16.3,4.7,16.3,13s-7.8,12-20.6,12H109.2c-6.2,0-11.2,5-11.2,11.2v91.4c0,6.2,5,11.2,11.2,11.2h241c86.3,0,146.1-38.2,146.1-120.6s-55.8-103.2-113.8-121.2h0Z"/>
</svg>